<?xml version="1.0" standalone="no"?>
<!DOCTYPE svg PUBLIC "-//W3C//DTD SVG 20010904//EN"
 "http://www.w3.org/TR/2001/REC-SVG-20010904/DTD/svg10.dtd">
<svg version="1.0" xmlns="http://www.w3.org/2000/svg"
 width="512.000000pt" height="512.000000pt" viewBox="0 0 512.000000 512.000000"
 preserveAspectRatio="xMidYMid meet">
<metadata>
Created by potrace 1.14, written by Peter Selinger 2001-2017
</metadata>
<g transform="translate(0.000000,512.000000) scale(0.100000,-0.100000)"
fill="#000000" stroke="none">
<path d="M2070 4955 c-269 -72 -488 -178 -744 -359 -127 -90 -178 -144 -221
-231 -58 -117 -67 -233 -29 -371 5 -18 -1 -23 -40 -33 -205 -51 -379 -214
-453 -423 -32 -90 -42 -272 -21 -353 l14 -50 -46 -51 c-195 -219 -226 -541
-74 -786 l35 -58 -36 -75 c-48 -99 -64 -178 -60 -300 3 -111 7 -133 35 -208
44 -116 129 -228 225 -298 l61 -44 -2 -115 c-4 -154 25 -258 101 -374 84 -127
220 -230 357 -270 36 -10 50 -22 82 -71 138 -210 346 -330 591 -342 162 -7
290 25 433 108 75 44 198 170 242 247 19 34 37 61 40 61 3 0 21 -27 40 -61 40
-70 143 -179 213 -227 66 -45 159 -86 244 -110 58 -16 97 -19 190 -17 65 2
127 6 138 9 11 3 40 10 65 17 55 14 188 81 227 112 65 53 153 147 189 202 36
55 44 61 105 81 130 43 248 134 326 250 49 71 68 114 100 220 4 11 7 80 8 154
1 132 2 134 25 143 13 5 61 46 106 92 64 65 91 101 123 167 92 190 92 400 2
582 -17 34 -31 65 -31 69 0 4 12 24 26 45 72 106 104 228 100 378 -5 164 -55
290 -164 416 l-44 49 12 67 c14 82 11 206 -6 280 -51 222 -224 408 -441 475
-65 20 -73 25 -68 43 52 181 9 369 -113 492 -41 41 -193 152 -303 220 -222
138 -584 273 -735 273 -115 0 -229 -51 -299 -133 l-35 -40 -40 45 c-104 119
-260 154 -450 103z m274 -140 c47 -22 90 -68 117 -123 l24 -47 3 -569 3 -568
-33 27 c-53 45 -135 76 -208 80 -92 4 -120 -13 -120 -72 0 -43 27 -60 105 -66
34 -2 76 -12 93 -21 49 -25 108 -91 137 -151 l25 -54 0 -958 0 -958 -52 54
c-56 57 -134 113 -208 151 -62 32 -179 68 -201 63 -48 -13 -68 -79 -33 -113
11 -10 46 -26 79 -35 93 -26 171 -73 244 -145 122 -122 173 -258 167 -440 -7
-176 -57 -293 -181 -416 -125 -124 -272 -180 -450 -172 -111 6 -192 29 -285
84 -92 54 -197 168 -233 256 -14 33 -22 39 -74 53 -138 39 -219 87 -293 176
-104 125 -144 292 -109 447 18 76 9 95 -67 137 -118 66 -209 181 -248 313 -29
101 -8 304 38 367 13 18 16 18 33 4 59 -51 208 -113 296 -124 167 -19 227 -2
227 63 0 50 -31 67 -126 69 -150 3 -265 52 -369 158 -94 97 -145 217 -146 350
-1 145 48 262 157 374 41 42 74 83 74 91 0 8 -9 44 -21 80 -13 43 -20 92 -20
145 0 231 137 416 367 495 66 23 215 24 288 3 212 -63 352 -235 372 -458 6
-64 11 -79 32 -95 33 -27 58 -25 89 6 24 25 25 29 19 100 -29 316 -266 564
-575 601 -53 6 -56 9 -77 82 -46 154 34 329 184 403 60 30 75 33 157 33 78 0
98 -4 145 -27 75 -37 134 -98 171 -174 40 -86 81 -106 127 -64 30 28 28 65 -8
137 -58 116 -167 210 -285 247 l-58 19 84 41 c160 80 343 145 464 165 47 8
113 -2 159 -24z m731 -12 c97 -28 253 -91 350 -141 59 -30 59 -31 30 -38 -122
-29 -259 -140 -313 -255 -35 -74 -40 -110 -17 -133 45 -45 96 -26 129 48 32
73 102 146 173 181 51 26 69 29 148 30 82 0 96 -3 157 -33 150 -74 230 -248
184 -403 -21 -73 -24 -76 -76 -82 -65 -8 -98 -16 -160 -40 -231 -88 -400 -317
-415 -565 -5 -67 -3 -75 20 -97 13 -14 33 -25 45 -25 32 0 70 44 70 82 2 122
59 263 143 351 42 45 132 104 192 126 75 29 202 38 287 21 185 -36 353 -196
394 -372 2 -10 6 -28 9 -40 13 -54 5 -176 -14 -238 -12 -36 -21 -72 -21 -81 0
-9 33 -49 73 -90 167 -168 206 -387 105 -595 -84 -175 -256 -282 -460 -287
-98 -2 -128 -19 -128 -69 0 -39 32 -68 78 -69 164 -6 296 30 419 114 l52 35
26 -66 c31 -78 42 -199 26 -287 -27 -148 -137 -292 -278 -364 -52 -26 -60 -52
-43 -129 25 -111 7 -240 -48 -352 -59 -119 -213 -236 -343 -260 -50 -10 -88
-37 -89 -64 0 -5 -19 -36 -42 -70 -140 -206 -382 -305 -625 -256 -32 6 -96 30
-143 52 -68 32 -100 56 -160 117 -84 86 -129 161 -159 270 -20 74 -21 93 -21
1470 l0 1396 24 52 c29 62 100 136 152 158 22 9 63 17 91 17 37 1 59 7 73 20
26 25 26 72 -1 99 -19 19 -30 21 -98 17 -83 -5 -162 -36 -214 -86 l-28 -27 3
400 c3 393 3 401 26 446 42 86 116 138 212 151 34 5 99 -7 205 -39z"/>
<path d="M1153 3384 c-20 -20 -23 -33 -23 -102 0 -307 234 -583 539 -633 l71
-12 -28 -49 c-38 -69 -141 -163 -208 -187 -48 -18 -96 -28 -147 -30 -20 -1
-49 -32 -54 -58 -14 -92 130 -102 293 -22 109 54 233 192 279 313 15 40 19 43
83 59 127 33 301 152 332 227 16 39 1 76 -35 90 -33 13 -62 0 -105 -45 -182
-195 -504 -209 -705 -33 -114 101 -176 236 -176 387 0 58 -12 90 -38 105 -28
17 -54 14 -78 -10z"/>
<path d="M1930 2033 c-65 -10 -177 -46 -233 -74 -227 -115 -346 -275 -381
-514 l-11 -80 -57 3 c-50 3 -61 0 -83 -22 -31 -31 -32 -66 -2 -94 18 -17 36
-22 79 -22 70 0 199 -33 253 -64 71 -42 140 -119 181 -203 57 -117 67 -150 79
-255 10 -79 45 -107 103 -82 34 14 36 20 33 99 -9 232 -170 486 -367 581 l-76
37 6 68 c22 253 201 427 491 480 69 12 95 31 95 69 0 52 -47 83 -110 73z"/>
<path d="M4040 3463 c-16 -20 -20 -41 -20 -94 0 -38 0 -70 0 -71 0 -2 -7 -28
-16 -58 -79 -271 -355 -433 -619 -365 -90 23 -157 61 -236 133 -63 56 -75 63
-102 58 -36 -7 -56 -32 -57 -69 0 -21 14 -42 53 -81 82 -83 198 -150 302 -175
49 -12 50 -13 87 -89 99 -206 283 -332 486 -334 27 -1 62 30 66 58 4 24 -20
73 -37 76 -6 0 -23 2 -37 3 -138 10 -267 96 -337 222 l-23 40 80 16 c303 59
523 320 529 628 1 61 -2 80 -17 99 -28 34 -76 35 -102 3z"/>
<path d="M2861 2191 c-43 -43 -9 -121 53 -121 41 0 171 -42 236 -76 165 -86
262 -229 276 -407 l6 -72 -80 -38 c-144 -68 -262 -211 -322 -390 -28 -83 -44
-163 -43 -226 0 -39 31 -71 69 -71 24 0 63 34 65 57 8 85 22 145 49 219 82
219 223 321 465 338 56 4 74 10 88 27 23 28 22 64 -3 89 -22 22 -23 22 -97 21
-53 0 -53 0 -54 32 0 18 -2 39 -4 47 -1 8 -5 32 -9 52 -18 115 -107 272 -196
347 -91 77 -233 151 -319 167 -14 3 -28 7 -31 9 -4 2 -34 7 -67 11 -54 5 -64
3 -82 -15z"/>
</g>
</svg>
